<?xml version="1.0" encoding="utf-8"?>
<!-- Generator: Adobe Illustrator 24.2.3, SVG Export Plug-In . SVG Version: 6.00 Build 0)  -->
<svg version="1.1" id="Layer_1" xmlns="http://www.w3.org/2000/svg" xmlns:xlink="http://www.w3.org/1999/xlink" x="0px" y="0px"
	 viewBox="0 0 16 16" style="enable-background:new 0 0 16 16;" xml:space="preserve">
<style type="text/css">
	.st0{fill:#464646;}
</style>
<path class="st0" d="M8,16c4.1,0,7.5-3.4,7.5-7.5c0-3.4-2.3-6.4-5.5-7.2C10.1,0.7,9.8,0.2,9.3,0C9.2,0,9.1,0,9,0H7C6.4,0,6,0.4,6,1
	c0,0.1,0,0.2,0,0.3c-4,1.1-6.4,5.2-5.3,9.2C1.6,13.7,4.6,16,8,16z M14.5,8.5c0,3.6-2.9,6.5-6.5,6.5s-6.5-2.9-6.5-6.5S4.4,2,8,2
	S14.5,4.9,14.5,8.5z"/>
<path class="st0" d="M6.9,7.4l4.9-2.8L9.1,9.6l-4.9,2.8L6.9,7.4L6.9,7.4z"/>
</svg>
